# File created by Blade
# Date/Time:  Tue Jan 27 18:35:12 2015
#---------------------------------------------------------
:version 1.10
:name HOM
:units
  mass 1.0
  length 1.000000
  angle deg
:documentation
     Acclaim Skeleton File
:root
   axis xyz
   order TX TY TZ RX RY RZ
   position 0.000000 0.000000 0.000000
   orientation 0 0 0
:bonedata
   begin
      id 1
      name Spine_dum
      direction 0.000000 1.000000 0.000000
      length 5.195262
      axis 0.0 0.0 0.0 xyz
   end
   begin
      id 2
      name LeftUpLeg_dum
      direction 1.000000 0.000000 0.000000
      length 3.351363
      axis 0.0 0.0 0.0 xyz
   end
   begin
      id 3
      name RightUpLeg_dum
      direction -1.000000 0.000000 0.000000
      length 3.351363
      axis 0.0 0.0 0.0 xyz
   end
   begin
      id 4
      name Spine
      direction 0.000000 1.000000 0.000000
      length 0.000000
      axis 0.0 0.0 0.0 xyz
      dof rx ry rz
   end
   begin
      id 5
      name Spine_dum1
      direction 0.000000 1.000000 0.000000
      length 15.653875
      axis 0.0 0.0 0.0 xyz
   end
   begin
      id 6
      name Spine_dum2
      direction 0.000000 1.000000 0.000000
      length 10.329768
      axis 0.0 0.0 0.0 xyz
   end
   begin
      id 7
      name Spine_dum3
      direction 0.000000 1.000000 0.000000
      length 10.329768
      axis 0.0 0.0 0.0 xyz
   end
   begin
      id 8
      name Head
      direction 0.000000 1.000000 0.000000
      length 4.527550
      axis 0.0 0.0 0.0 xyz
      dof rx ry rz
   end
   begin
      id 9
      name LeftShoulder
      direction 1.000000 0.000000 0.000000
      length 6.996006
      axis 0.0 0.0 -90.0 xyz
      dof rx ry rz
   end
   begin
      id 10
      name LeftArm
      direction 1.000000 0.000000 0.000000
      length 10.209302
      axis 0.0 0.0 -90.0 xyz
      dof rx ry rz
   end
   begin
      id 11
      name LeftForeArm
      direction 1.000000 0.000000 0.000000
      length 8.563163
      axis 0.0 0.0 -90.0 xyz
      dof ry rz rx
   end
   begin
      id 12
      name LeftHand
      direction 0.000000 0.000000 0.000000
      length 0.000000
      axis 0.0 0.0 -90.0 xyz
      dof rx ry rz
   end
   begin
      id 13
      name LeftHand_dum1
      direction 0.000000 0.000000 0.000000
      length 0.000000
      axis 0.0 0.0 -90.0 xyz
   end
   begin
      id 14
      name LeftHand_dum2
      direction 1.000000 0.000000 0.000000
      length 3.937000
      axis 0.0 0.0 -90.0 xyz
   end
   begin
      id 15
      name LeftHandThumb1
      direction 0.000000 0.000000 1.000000
      length 3.937000
      axis 0.0 0.0 -90.0 xyz
      dof rx rz ry
   end
   begin
      id 16
      name RightShoulder
      direction -1.000000 0.000000 0.000000
      length 6.996006
      axis 0.0 0.0 90.0 xyz
      dof rx ry rz
   end
   begin
      id 17
      name RightArm
      direction -1.000000 0.000000 0.000000
      length 10.209302
      axis 0.0 0.0 90.0 xyz
      dof rx ry rz
   end
   begin
      id 18
      name RightForeArm
      direction -1.000000 0.000000 0.000000
      length 8.563163
      axis 0.0 0.0 90.0 xyz
      dof ry rz rx
   end
   begin
      id 19
      name RightHand
      direction 0.000000 0.000000 0.000000
      length 0.000000
      axis 0.0 0.0 90.0 xyz
      dof rx ry rz
   end
   begin
      id 20
      name RightHand_dum1
      direction 0.000000 0.000000 0.000000
      length 0.000000
      axis 0.0 0.0 90.0 xyz
   end
   begin
      id 21
      name RightHand_dum2
      direction -1.000000 0.000000 0.000000
      length 3.937000
      axis 0.0 0.0 90.0 xyz
   end
   begin
      id 22
      name RightHandThumb1
      direction 0.000000 0.000000 1.000000
      length 3.937000
      axis 0.0 0.0 90.0 xyz
      dof rx rz ry
   end
   begin
      id 23
      name LeftUpLeg
      direction 0.000000 -1.000000 0.000000
      length 16.346831
      axis 0.0 0.0 0.0 xyz
      dof rx ry rz
   end
   begin
      id 24
      name LeftLeg
      direction 0.000000 -1.000000 0.000000
      length 13.959795
      axis 0.0 0.0 0.0 xyz
      dof rx ry rz
   end
   begin
      id 25
      name LeftFoot
      direction 0.000000 -0.258819 0.965926
      length 5.165550
      axis 15.0 0.0 0.0 xyz
      dof rx ry rz
   end
   begin
      id 26
      name LeftToeBase
      direction 0.000000 0.000000 1.000000
      length 2.952750
      axis 0.0 0.0 0.0 xyz
      dof rx ry rz
   end
   begin
      id 27
      name RightUpLeg
      direction 0.000000 -1.000000 0.000000
      length 16.346831
      axis 0.0 0.0 0.0 xyz
      dof rx ry rz
   end
   begin
      id 28
      name RightLeg
      direction 0.000000 -1.000000 0.000000
      length 13.959795
      axis 0.0 0.0 0.0 xyz
      dof rx ry rz
   end
   begin
      id 29
      name RightFoot
      direction 0.000000 -0.258819 0.965926
      length 5.165550
      axis 15.0 0.0 0.0 xyz
      dof rx ry rz
   end
   begin
      id 30
      name RightToeBase
      direction 0.000000 0.000000 1.000000
      length 2.952750
      axis 0.0 0.0 0.0 xyz
      dof rx ry rz
   end
:hierarchy
   begin
      root Spine_dum LeftUpLeg_dum RightUpLeg_dum
      Spine_dum Spine
      LeftUpLeg_dum LeftUpLeg
      RightUpLeg_dum RightUpLeg
      Spine Spine_dum1 Spine_dum2 Spine_dum3
      Spine_dum1 Head
      Spine_dum2 LeftShoulder
      Spine_dum3 RightShoulder
      LeftShoulder LeftArm
      LeftArm LeftForeArm
      LeftForeArm LeftHand
      LeftHand LeftHand_dum1 LeftHand_dum2
      LeftHand_dum1 LeftHandThumb1
      RightShoulder RightArm
      RightArm RightForeArm
      RightForeArm RightHand
      RightHand RightHand_dum1 RightHand_dum2
      RightHand_dum1 RightHandThumb1
      LeftUpLeg LeftLeg
      LeftLeg LeftFoot
      LeftFoot LeftToeBase
      RightUpLeg RightLeg
      RightLeg RightFoot
      RightFoot RightToeBase
   end

# File created by Blade
# Date/Time:  Tue Jan 27 18:35:03 2015
# Frame Rate: 120.000 fps
#------------------------------------------------------
:FULLY-SPECIFIED
:DEGREES
524
root -4.186611 31.607865 -1.938794 -10.866680 20.393325 -14.042790
Spine 14.793630 -11.678061 -1.394872
Head 1.963313 2.857369 15.786704
LeftShoulder -11.761560 9.251501 18.748388
LeftArm 32.253872 -27.243285 -81.258032
LeftForeArm 139.133693 -0.000000 130.147592
LeftHand 9.336534 -0.000000 -5.421089
LeftHandThumb1 -26.253704 0.000000 33.147579
RightShoulder -14.454249 -7.106540 -6.945011
RightArm 5.348846 -34.871812 80.752279
RightForeArm -25.031987 -0.000000 31.002239
RightHand -13.802805 -0.000000 11.907574
RightHandThumb1 -24.326973 -0.000000 -32.862282
LeftUpLeg -7.132065 0.190462 7.752995
LeftLeg 34.674398 -0.000000 -0.000000
LeftFoot -28.829193 7.280554 -17.083152
LeftToeBase 10.835330 -0.000000 -0.000000
RightUpLeg -95.249531 8.619803 21.661622
RightLeg 97.439130 -0.000000 -0.000000
RightFoot -0.169061 8.824295 26.592410
RightToeBase 2.617379 -0.000000 -0.000000
525
root -4.185524 31.612999 -1.928842 -10.836374 20.521637 -14.068568
Spine 14.726236 -11.697434 -1.397072
Head 1.895904 2.777286 15.798025
LeftShoulder -11.784276 9.232820 18.739984
LeftArm 32.306195 -27.064626 -81.184508
LeftForeArm 139.164297 -0.000000 130.116918
LeftHand 9.334074 -0.000000 -5.406650
LeftHandThumb1 -26.253704 0.000000 33.147579
RightShoulder -14.424168 -7.074212 -6.962178
RightArm 5.256406 -34.807919 80.841918
RightForeArm -25.155815 0.000000 30.896230
RightHand -13.759299 0.000000 11.971924
RightHandThumb1 -24.326973 -0.000000 -32.862282
LeftUpLeg -7.158711 0.096788 7.760152
LeftLeg 34.600397 -0.000000 -0.000000
LeftFoot -28.771952 7.335577 -16.952573
LeftToeBase 10.774284 -0.000000 -0.000000
RightUpLeg -95.243490 8.515858 21.402275
RightLeg 97.656310 -0.000000 -0.000000
RightFoot -0.153569 8.579066 26.293248
RightToeBase 2.566612 -0.000000 -0.000000
526
root -4.183641 31.617621 -1.920143 -10.787427 20.678517 -14.081183
Spine 14.655930 -11.738344 -1.403696
Head 1.803542 2.723859 15.766027
LeftShoulder -11.813086 9.178069 18.717147
LeftArm 32.329008 -26.878211 -81.070509
LeftForeArm 139.202071 0.000000 130.085710
LeftHand 9.313004 -0.000000 -5.443119
LeftHandThumb1 -26.253704 0.000000 33.147579
RightShoulder -14.427408 -7.098512 -6.976423
RightArm 5.312175 -34.857338 80.843686
RightForeArm -25.084636 0.000000 30.733070
RightHand -14.045732 -0.000000 11.536794
RightHandThumb1 -24.326973 -0.000000 -32.862282
LeftUpLeg -7.199551 -0.051451 7.738186
LeftLeg 34.516006 -0.000000 -0.000000
LeftFoot -28.714277 7.460918 -16.866763
LeftToeBase 10.600949 -0.000000 -0.000000
RightUpLeg -95.273296 8.383251 21.089104
RightLeg 97.952307 -0.000000 -0.000000
RightFoot -0.039347 8.387071 26.021416
RightToeBase 2.673873 -0.000000 -0.000000
527
root -4.176783 31.623008 -1.914531 -10.773644 20.849949 -14.115434
Spine 14.610993 -11.811891 -1.371474
Head 1.726997 2.657322 15.744720
LeftShoulder -11.794995 9.135822 18.721117
LeftArm 32.324989 -26.731822 -81.047446
LeftForeArm 139.226102 -0.000000 130.060125
LeftHand 9.343920 -0.000000 -5.418488
LeftHandThumb1 -26.253704 0.000000 33.147579
RightShoulder -14.366265 -7.062614 -7.042463
RightArm 5.289000 -34.904283 80.878119
RightForeArm -25.068085 -0.000000 30.600124
RightHand -13.790516 -0.000000 11.914984
RightHandThumb1 -24.326973 -0.000000 -32.862282
LeftUpLeg -7.221155 -0.240187 7.710713
LeftLeg 34.450159 -0.000000 -0.000000
LeftFoot -28.680531 7.572183 -16.853874
LeftToeBase 10.465587 -0.000000 -0.000000
RightUpLeg -95.274889 8.201096 20.846814
RightLeg 98.308644 -0.000000 -0.000000
RightFoot 0.113529 8.129873 25.520315
RightToeBase 2.804667 -0.000000 -0.000000
528
root -4.169954 31.630427 -1.906614 -10.748050 20.975275 -14.132134
Spine 14.561854 -11.824171 -1.353261
Head 1.649207 2.578091 15.708398
LeftShoulder -11.805124 9.104424 18.706871
LeftArm 32.347419 -26.531024 -80.982548
LeftForeArm 139.257000 0.000000 130.029580
LeftHand 9.346766 -0.000000 -5.433334
LeftHandThumb1 -26.253704 0.000000 33.147579
RightShoulder -14.348702 -7.042963 -7.080453
RightArm 5.325728 -35.023124 80.847623
RightForeArm -24.857898 -0.000000 30.461679
RightHand -13.867465 -0.000000 11.666645
RightHandThumb1 -24.326973 -0.000000 -32.862282
LeftUpLeg -7.220426 -0.433685 7.682606
LeftLeg 34.336953 -0.000000 -0.000000
LeftFoot -28.623760 7.751933 -16.722590
LeftToeBase 10.377682 -0.000000 -0.000000
RightUpLeg -95.247140 8.081628 20.600110
RightLeg 98.692484 -0.000000 -0.000000
RightFoot 0.349992 7.867743 24.926239
RightToeBase 2.613539 -0.000000 -0.000000
